<?xml version="1.0" standalone="no"?>
<!DOCTYPE svg PUBLIC "-//W3C//DTD SVG 20010904//EN"
 "http://www.w3.org/TR/2001/REC-SVG-20010904/DTD/svg10.dtd">
<svg version="1.0" xmlns="http://www.w3.org/2000/svg"
 width="1536.000000pt" height="1024.000000pt" viewBox="0 0 1536.000000 1024.000000"
 preserveAspectRatio="xMidYMid meet">

<g transform="translate(0.000000,1024.000000) scale(0.100000,-0.100000)"
fill="#000000" stroke="none">
<path d="M0 5120 l0 -5120 7680 0 7680 0 0 5120 0 5120 -7680 0 -7680 0 0
-5120z m7687 1318 c-3 -7 -5 -2 -5 12 0 14 2 19 5 13 2 -7 2 -19 0 -25z m0
-310 c-2 -13 -4 -5 -4 17 -1 22 1 32 4 23 2 -10 2 -28 0 -40z m0 -340 c-2 -35
-3 -9 -3 57 0 66 1 94 3 63 2 -32 2 -86 0 -120z m9 -643 c-3 -159 -6 -495 -6
-745 0 -250 -4 -450 -8 -443 -4 6 -6 276 -6 600 2 557 1 590 -17 625 -11 21
-19 45 -19 55 0 15 1 15 13 -1 18 -25 18 -24 25 189 5 177 5 178 14 95 5 -47
7 -215 4 -375z m-50 -92 c-10 -10 -19 5 -10 18 6 11 8 11 12 0 2 -7 1 -15 -2
-18z m39 -1258 c-1 -80 -5 -148 -9 -152 -8 -8 -8 244 0 275 4 12 7 22 9 22 1
0 1 -65 0 -145z"/>
</g>
</svg>
